<svg width="28" height="36" viewBox="0 0 28 36" fill="none" xmlns="http://www.w3.org/2000/svg">
<path d="M27.0963 19.0562C24.3481 11.8931 14.5634 11.5068 16.9264 1.09563C17.1014 0.323127 16.2788 -0.273804 15.6136 0.130002C9.25964 3.88716 4.69108 11.419 8.52447 21.2859C8.83954 22.0936 7.89432 22.8485 7.21166 22.3218C4.04343 19.9165 3.71086 16.4578 3.99092 13.9823C4.09595 13.0694 2.90567 12.6304 2.39805 13.3854C1.20778 15.2113 0 18.1608 0 22.6027C0.665153 32.4345 8.94456 35.4543 11.9203 35.8405C16.1737 36.3848 20.7773 35.5947 24.0856 32.5574C27.7264 29.1689 29.0567 23.7615 27.0963 19.0562ZM10.8525 27.8873C13.3731 27.2728 14.6684 25.4469 15.0185 23.8317C15.5961 21.3211 13.3381 18.8631 14.8609 14.8953C15.4386 18.1784 20.5847 20.2325 20.5847 23.8141C20.7248 28.256 15.9287 32.0658 10.8525 27.8873Z" fill="#FAC05E"/>
</svg>
