<svg width="28" height="36" viewBox="0 0 28 36" fill="none" xmlns="http://www.w3.org/2000/svg">
<path d="M27.8709 6.066C28.3399 4.878 27.474 3.6 26.1932 3.6H14.4315H12.6276H3.60788V1.8C3.60788 0.81 2.79611 0 1.80394 0C0.811774 0 0 0.81 0 1.8V3.6V21.6V36H3.60788V21.6H10.8237H12.6276H26.1932C27.474 21.6 28.3399 20.322 27.8709 19.134L25.2552 12.6L27.8709 6.066ZM18.0394 12.6C18.0394 14.58 16.4159 16.2 14.4315 16.2C12.4472 16.2 10.8237 14.58 10.8237 12.6C10.8237 10.62 12.4472 9 14.4315 9C16.4159 9 18.0394 10.62 18.0394 12.6Z" fill="#FAC05E"/>
</svg>
