<svg width="180" height="62" viewBox="0 0 180 62" fill="none" xmlns="http://www.w3.org/2000/svg">
<g filter="url(#filter0_d_5864_5610)">
<rect x="4" width="172" height="54" rx="27" fill="white"/>
<rect x="4" width="112" height="54" rx="27" fill="#E76F51"/>
<path d="M53.4953 29.5H60.5048M57 8.5V10M66.546 12.4541L65.4853 13.5147M70.5001 21.9999H69.0001M45.0001 21.9999H43.5001M48.5148 13.5147L47.4541 12.4541M51.6967 27.3033C48.7678 24.3744 48.7678 19.6257 51.6967 16.6967C54.6257 13.7678 59.3744 13.7678 62.3033 16.6967C65.2323 19.6257 65.2323 24.3744 62.3033 27.3033L61.4827 28.124C60.5334 29.0733 60 30.3609 60 31.7034V32.5C60 34.1569 58.6569 35.5 57 35.5C55.3432 35.5 54 34.1569 54 32.5V31.7034C54 30.3609 53.4667 29.0733 52.5174 28.124L51.6967 27.3033Z" stroke="url(#paint0_linear_5864_5610)" stroke-width="3" stroke-linecap="round" stroke-linejoin="round"/>
<path d="M51.164 42.288C51.164 42.776 51.052 43.224 50.828 43.632C50.604 44.032 50.26 44.356 49.796 44.604C49.332 44.852 48.756 44.976 48.068 44.976H46.796V48H44.744V39.576H48.068C48.74 39.576 49.308 39.692 49.772 39.924C50.236 40.156 50.584 40.476 50.816 40.884C51.048 41.292 51.164 41.76 51.164 42.288ZM47.912 43.344C48.304 43.344 48.596 43.252 48.788 43.068C48.98 42.884 49.076 42.624 49.076 42.288C49.076 41.952 48.98 41.692 48.788 41.508C48.596 41.324 48.304 41.232 47.912 41.232H46.796V43.344H47.912ZM54.4843 39.12V48H52.4323V39.12H54.4843ZM55.7633 44.64C55.7633 43.952 55.8913 43.348 56.1473 42.828C56.4113 42.308 56.7673 41.908 57.2153 41.628C57.6633 41.348 58.1633 41.208 58.7153 41.208C59.1873 41.208 59.5993 41.304 59.9513 41.496C60.3113 41.688 60.5873 41.94 60.7793 42.252V41.304H62.8313V48H60.7793V47.052C60.5793 47.364 60.2993 47.616 59.9393 47.808C59.5873 48 59.1753 48.096 58.7033 48.096C58.1593 48.096 57.6633 47.956 57.2153 47.676C56.7673 47.388 56.4113 46.984 56.1473 46.464C55.8913 45.936 55.7633 45.328 55.7633 44.64ZM60.7793 44.652C60.7793 44.14 60.6353 43.736 60.3473 43.44C60.0673 43.144 59.7233 42.996 59.3153 42.996C58.9073 42.996 58.5593 43.144 58.2713 43.44C57.9913 43.728 57.8513 44.128 57.8513 44.64C57.8513 45.152 57.9913 45.56 58.2713 45.864C58.5593 46.16 58.9073 46.308 59.3153 46.308C59.7233 46.308 60.0673 46.16 60.3473 45.864C60.6353 45.568 60.7793 45.164 60.7793 44.652ZM71.3559 41.304L67.1559 51.18H64.9479L66.4839 47.772L63.7599 41.304H66.0519L67.5999 45.492L69.1359 41.304H71.3559Z" fill="white"/>
<path d="M129.792 48.084C129.176 48.084 128.624 47.984 128.136 47.784C127.648 47.584 127.256 47.288 126.96 46.896C126.672 46.504 126.52 46.032 126.504 45.48H128.688C128.72 45.792 128.828 46.032 129.012 46.2C129.196 46.36 129.436 46.44 129.732 46.44C130.036 46.44 130.276 46.372 130.452 46.236C130.628 46.092 130.716 45.896 130.716 45.648C130.716 45.44 130.644 45.268 130.5 45.132C130.364 44.996 130.192 44.884 129.984 44.796C129.784 44.708 129.496 44.608 129.12 44.496C128.576 44.328 128.132 44.16 127.788 43.992C127.444 43.824 127.148 43.576 126.9 43.248C126.652 42.92 126.528 42.492 126.528 41.964C126.528 41.18 126.812 40.568 127.38 40.128C127.948 39.68 128.688 39.456 129.6 39.456C130.528 39.456 131.276 39.68 131.844 40.128C132.412 40.568 132.716 41.184 132.756 41.976H130.536C130.52 41.704 130.42 41.492 130.236 41.34C130.052 41.18 129.816 41.1 129.528 41.1C129.28 41.1 129.08 41.168 128.928 41.304C128.776 41.432 128.7 41.62 128.7 41.868C128.7 42.14 128.828 42.352 129.084 42.504C129.34 42.656 129.74 42.82 130.284 42.996C130.828 43.18 131.268 43.356 131.604 43.524C131.948 43.692 132.244 43.936 132.492 44.256C132.74 44.576 132.864 44.988 132.864 45.492C132.864 45.972 132.74 46.408 132.492 46.8C132.252 47.192 131.9 47.504 131.436 47.736C130.972 47.968 130.424 48.084 129.792 48.084ZM138.059 46.26V48H137.015C136.271 48 135.691 47.82 135.275 47.46C134.859 47.092 134.651 46.496 134.651 45.672V43.008H133.835V41.304H134.651V39.672H136.703V41.304H138.047V43.008H136.703V45.696C136.703 45.896 136.751 46.04 136.847 46.128C136.943 46.216 137.103 46.26 137.327 46.26H138.059ZM138.994 44.64C138.994 43.952 139.122 43.348 139.378 42.828C139.642 42.308 139.998 41.908 140.446 41.628C140.894 41.348 141.394 41.208 141.946 41.208C142.418 41.208 142.83 41.304 143.182 41.496C143.542 41.688 143.818 41.94 144.01 42.252V41.304H146.062V48H144.01V47.052C143.81 47.364 143.53 47.616 143.17 47.808C142.818 48 142.406 48.096 141.934 48.096C141.39 48.096 140.894 47.956 140.446 47.676C139.998 47.388 139.642 46.984 139.378 46.464C139.122 45.936 138.994 45.328 138.994 44.64ZM144.01 44.652C144.01 44.14 143.866 43.736 143.578 43.44C143.298 43.144 142.954 42.996 142.546 42.996C142.138 42.996 141.79 43.144 141.502 43.44C141.222 43.728 141.082 44.128 141.082 44.64C141.082 45.152 141.222 45.56 141.502 45.864C141.79 46.16 142.138 46.308 142.546 46.308C142.954 46.308 143.298 46.16 143.578 45.864C143.866 45.568 144.01 45.164 144.01 44.652ZM151.478 46.26V48H150.434C149.69 48 149.11 47.82 148.694 47.46C148.278 47.092 148.07 46.496 148.07 45.672V43.008H147.254V41.304H148.07V39.672H150.122V41.304H151.466V43.008H150.122V45.696C150.122 45.896 150.17 46.04 150.266 46.128C150.362 46.216 150.522 46.26 150.746 46.26H151.478ZM155.545 48.096C154.961 48.096 154.441 47.996 153.985 47.796C153.529 47.596 153.169 47.324 152.905 46.98C152.641 46.628 152.493 46.236 152.461 45.804H154.489C154.513 46.036 154.621 46.224 154.813 46.368C155.005 46.512 155.241 46.584 155.521 46.584C155.777 46.584 155.973 46.536 156.109 46.44C156.253 46.336 156.325 46.204 156.325 46.044C156.325 45.852 156.225 45.712 156.025 45.624C155.825 45.528 155.501 45.424 155.053 45.312C154.573 45.2 154.173 45.084 153.853 44.964C153.533 44.836 153.257 44.64 153.025 44.376C152.793 44.104 152.677 43.74 152.677 43.284C152.677 42.9 152.781 42.552 152.989 42.24C153.205 41.92 153.517 41.668 153.925 41.484C154.341 41.3 154.833 41.208 155.401 41.208C156.241 41.208 156.901 41.416 157.381 41.832C157.869 42.248 158.149 42.8 158.221 43.488H156.325C156.293 43.256 156.189 43.072 156.013 42.936C155.845 42.8 155.621 42.732 155.341 42.732C155.101 42.732 154.917 42.78 154.789 42.876C154.661 42.964 154.597 43.088 154.597 43.248C154.597 43.44 154.697 43.584 154.897 43.68C155.105 43.776 155.425 43.872 155.857 43.968C156.353 44.096 156.757 44.224 157.069 44.352C157.381 44.472 157.653 44.672 157.885 44.952C158.125 45.224 158.249 45.592 158.257 46.056C158.257 46.448 158.145 46.8 157.921 47.112C157.705 47.416 157.389 47.656 156.973 47.832C156.565 48.008 156.089 48.096 155.545 48.096Z" fill="#E76F51"/>
<path d="M137.25 29.75V22.25C137.25 20.8693 136.131 19.75 134.75 19.75H132.25C130.869 19.75 129.75 20.8693 129.75 22.25V29.75C129.75 31.1307 130.869 32.25 132.25 32.25H134.75C136.131 32.25 137.25 31.1307 137.25 29.75ZM137.25 29.75V17.25C137.25 15.8693 138.369 14.75 139.75 14.75H142.25C143.631 14.75 144.75 15.8693 144.75 17.25V29.75M137.25 29.75C137.25 31.1307 138.369 32.25 139.75 32.25H142.25C143.631 32.25 144.75 31.1307 144.75 29.75M144.75 29.75V12.25C144.75 10.8693 145.869 9.75 147.25 9.75H149.75C151.131 9.75 152.25 10.8693 152.25 12.25V29.75C152.25 31.1307 151.131 32.25 149.75 32.25H147.25C145.869 32.25 144.75 31.1307 144.75 29.75Z" stroke="#E76F51" stroke-width="3" stroke-linecap="round" stroke-linejoin="round"/>
</g>
<defs>
<filter id="filter0_d_5864_5610" x="0" y="0" width="180" height="62" filterUnits="userSpaceOnUse" color-interpolation-filters="sRGB">
<feFlood flood-opacity="0" result="BackgroundImageFix"/>
<feColorMatrix in="SourceAlpha" type="matrix" values="0 0 0 0 0 0 0 0 0 0 0 0 0 0 0 0 0 0 127 0" result="hardAlpha"/>
<feOffset dy="4"/>
<feGaussianBlur stdDeviation="2"/>
<feComposite in2="hardAlpha" operator="out"/>
<feColorMatrix type="matrix" values="0 0 0 0 0 0 0 0 0 0 0 0 0 0 0 0 0 0 0.25 0"/>
<feBlend mode="normal" in2="BackgroundImageFix" result="effect1_dropShadow_5864_5610"/>
<feBlend mode="normal" in="SourceGraphic" in2="effect1_dropShadow_5864_5610" result="shape"/>
</filter>
<linearGradient id="paint0_linear_5864_5610" x1="42.0001" y1="21.25" x2="73.1251" y2="22.375" gradientUnits="userSpaceOnUse">
<stop offset="0.0512221" stop-color="white"/>
<stop offset="1" stop-color="#FAC05E"/>
</linearGradient>
</defs>
</svg>
