<svg width="112" height="54" viewBox="0 0 112 54" fill="none" xmlns="http://www.w3.org/2000/svg">
<rect width="112" height="54" rx="27" fill="#E76F51"/>
<path d="M49.4953 29.5H56.5047M53 8.5V10M62.5459 12.4541L61.4853 13.5147M66.5001 21.9999H65.0001M41.0001 21.9999H39.5001M44.5147 13.5147L43.454 12.4541M47.6967 27.3033C44.7677 24.3744 44.7677 19.6257 47.6967 16.6967C50.6256 13.7678 55.3743 13.7678 58.3033 16.6967C61.2322 19.6257 61.2322 24.3744 58.3033 27.3033L57.4826 28.124C56.5333 29.0733 56 30.3609 56 31.7034V32.5C56 34.1569 54.6568 35.5 53 35.5C51.3431 35.5 50 34.1569 50 32.5V31.7034C50 30.3609 49.4667 29.0733 48.5173 28.124L47.6967 27.3033Z" stroke="url(#paint0_linear_5859_2151)" stroke-width="3" stroke-linecap="round" stroke-linejoin="round"/>
<path d="M47.164 42.288C47.164 42.776 47.052 43.224 46.828 43.632C46.604 44.032 46.26 44.356 45.796 44.604C45.332 44.852 44.756 44.976 44.068 44.976H42.796V48H40.744V39.576H44.068C44.74 39.576 45.308 39.692 45.772 39.924C46.236 40.156 46.584 40.476 46.816 40.884C47.048 41.292 47.164 41.76 47.164 42.288ZM43.912 43.344C44.304 43.344 44.596 43.252 44.788 43.068C44.98 42.884 45.076 42.624 45.076 42.288C45.076 41.952 44.98 41.692 44.788 41.508C44.596 41.324 44.304 41.232 43.912 41.232H42.796V43.344H43.912ZM50.4843 39.12V48H48.4323V39.12H50.4843ZM51.7633 44.64C51.7633 43.952 51.8913 43.348 52.1473 42.828C52.4113 42.308 52.7673 41.908 53.2153 41.628C53.6633 41.348 54.1633 41.208 54.7153 41.208C55.1873 41.208 55.5993 41.304 55.9513 41.496C56.3113 41.688 56.5873 41.94 56.7793 42.252V41.304H58.8313V48H56.7793V47.052C56.5793 47.364 56.2993 47.616 55.9393 47.808C55.5873 48 55.1753 48.096 54.7033 48.096C54.1593 48.096 53.6633 47.956 53.2153 47.676C52.7673 47.388 52.4113 46.984 52.1473 46.464C51.8913 45.936 51.7633 45.328 51.7633 44.64ZM56.7793 44.652C56.7793 44.14 56.6353 43.736 56.3473 43.44C56.0673 43.144 55.7233 42.996 55.3153 42.996C54.9073 42.996 54.5593 43.144 54.2713 43.44C53.9913 43.728 53.8513 44.128 53.8513 44.64C53.8513 45.152 53.9913 45.56 54.2713 45.864C54.5593 46.16 54.9073 46.308 55.3153 46.308C55.7233 46.308 56.0673 46.16 56.3473 45.864C56.6353 45.568 56.7793 45.164 56.7793 44.652ZM67.3559 41.304L63.1559 51.18H60.9479L62.4839 47.772L59.7599 41.304H62.0519L63.5999 45.492L65.1359 41.304H67.3559Z" fill="white"/>
<defs>
<linearGradient id="paint0_linear_5859_2151" x1="38.0001" y1="21.25" x2="69.1251" y2="22.375" gradientUnits="userSpaceOnUse">
<stop offset="0.0512221" stop-color="white"/>
<stop offset="1" stop-color="#FAC05E"/>
</linearGradient>
</defs>
</svg>
