<svg width="180" height="62" viewBox="0 0 180 62" fill="none" xmlns="http://www.w3.org/2000/svg">
<g filter="url(#filter0_d_5864_5637)">
<rect x="4" width="172" height="54" rx="27" fill="white"/>
<rect x="64" width="112" height="54" rx="27" fill="#E76F51"/>
<path d="M31.4953 28.5H38.5048M35 7.5V9M44.546 11.4541L43.4853 12.5147M48.5001 20.9999H47.0001M23.0001 20.9999H21.5001M26.5148 12.5147L25.4541 11.4541M29.6967 26.3033C26.7678 23.3744 26.7678 18.6257 29.6967 15.6967C32.6257 12.7678 37.3744 12.7678 40.3033 15.6967C43.2323 18.6257 43.2323 23.3744 40.3033 26.3033L39.4827 27.124C38.5334 28.0733 38 29.3609 38 30.7034V31.5C38 33.1569 36.6569 34.5 35 34.5C33.3432 34.5 32 33.1569 32 31.5V30.7034C32 29.3609 31.4667 28.0733 30.5174 27.124L29.6967 26.3033Z" stroke="#E76F51" stroke-width="3" stroke-linecap="round" stroke-linejoin="round"/>
<path d="M29.164 41.288C29.164 41.776 29.052 42.224 28.828 42.632C28.604 43.032 28.26 43.356 27.796 43.604C27.332 43.852 26.756 43.976 26.068 43.976H24.796V47H22.744V38.576H26.068C26.74 38.576 27.308 38.692 27.772 38.924C28.236 39.156 28.584 39.476 28.816 39.884C29.048 40.292 29.164 40.76 29.164 41.288ZM25.912 42.344C26.304 42.344 26.596 42.252 26.788 42.068C26.98 41.884 27.076 41.624 27.076 41.288C27.076 40.952 26.98 40.692 26.788 40.508C26.596 40.324 26.304 40.232 25.912 40.232H24.796V42.344H25.912ZM32.4843 38.12V47H30.4323V38.12H32.4843ZM33.7633 43.64C33.7633 42.952 33.8913 42.348 34.1473 41.828C34.4113 41.308 34.7673 40.908 35.2153 40.628C35.6633 40.348 36.1633 40.208 36.7153 40.208C37.1873 40.208 37.5993 40.304 37.9513 40.496C38.3113 40.688 38.5873 40.94 38.7793 41.252V40.304H40.8313V47H38.7793V46.052C38.5793 46.364 38.2993 46.616 37.9393 46.808C37.5873 47 37.1753 47.096 36.7033 47.096C36.1593 47.096 35.6633 46.956 35.2153 46.676C34.7673 46.388 34.4113 45.984 34.1473 45.464C33.8913 44.936 33.7633 44.328 33.7633 43.64ZM38.7793 43.652C38.7793 43.14 38.6353 42.736 38.3473 42.44C38.0673 42.144 37.7233 41.996 37.3153 41.996C36.9073 41.996 36.5593 42.144 36.2713 42.44C35.9913 42.728 35.8513 43.128 35.8513 43.64C35.8513 44.152 35.9913 44.56 36.2713 44.864C36.5593 45.16 36.9073 45.308 37.3153 45.308C37.7233 45.308 38.0673 45.16 38.3473 44.864C38.6353 44.568 38.7793 44.164 38.7793 43.652ZM49.3559 40.304L45.1559 50.18H42.9479L44.4839 46.772L41.7599 40.304H44.0519L45.5999 44.492L47.1359 40.304H49.3559Z" fill="#E76F51"/>
<path d="M109.792 47.084C109.176 47.084 108.624 46.984 108.136 46.784C107.648 46.584 107.256 46.288 106.96 45.896C106.672 45.504 106.52 45.032 106.504 44.48H108.688C108.72 44.792 108.828 45.032 109.012 45.2C109.196 45.36 109.436 45.44 109.732 45.44C110.036 45.44 110.276 45.372 110.452 45.236C110.628 45.092 110.716 44.896 110.716 44.648C110.716 44.44 110.644 44.268 110.5 44.132C110.364 43.996 110.192 43.884 109.984 43.796C109.784 43.708 109.496 43.608 109.12 43.496C108.576 43.328 108.132 43.16 107.788 42.992C107.444 42.824 107.148 42.576 106.9 42.248C106.652 41.92 106.528 41.492 106.528 40.964C106.528 40.18 106.812 39.568 107.38 39.128C107.948 38.68 108.688 38.456 109.6 38.456C110.528 38.456 111.276 38.68 111.844 39.128C112.412 39.568 112.716 40.184 112.756 40.976H110.536C110.52 40.704 110.42 40.492 110.236 40.34C110.052 40.18 109.816 40.1 109.528 40.1C109.28 40.1 109.08 40.168 108.928 40.304C108.776 40.432 108.7 40.62 108.7 40.868C108.7 41.14 108.828 41.352 109.084 41.504C109.34 41.656 109.74 41.82 110.284 41.996C110.828 42.18 111.268 42.356 111.604 42.524C111.948 42.692 112.244 42.936 112.492 43.256C112.74 43.576 112.864 43.988 112.864 44.492C112.864 44.972 112.74 45.408 112.492 45.8C112.252 46.192 111.9 46.504 111.436 46.736C110.972 46.968 110.424 47.084 109.792 47.084ZM118.059 45.26V47H117.015C116.271 47 115.691 46.82 115.275 46.46C114.859 46.092 114.651 45.496 114.651 44.672V42.008H113.835V40.304H114.651V38.672H116.703V40.304H118.047V42.008H116.703V44.696C116.703 44.896 116.751 45.04 116.847 45.128C116.943 45.216 117.103 45.26 117.327 45.26H118.059ZM118.994 43.64C118.994 42.952 119.122 42.348 119.378 41.828C119.642 41.308 119.998 40.908 120.446 40.628C120.894 40.348 121.394 40.208 121.946 40.208C122.418 40.208 122.83 40.304 123.182 40.496C123.542 40.688 123.818 40.94 124.01 41.252V40.304H126.062V47H124.01V46.052C123.81 46.364 123.53 46.616 123.17 46.808C122.818 47 122.406 47.096 121.934 47.096C121.39 47.096 120.894 46.956 120.446 46.676C119.998 46.388 119.642 45.984 119.378 45.464C119.122 44.936 118.994 44.328 118.994 43.64ZM124.01 43.652C124.01 43.14 123.866 42.736 123.578 42.44C123.298 42.144 122.954 41.996 122.546 41.996C122.138 41.996 121.79 42.144 121.502 42.44C121.222 42.728 121.082 43.128 121.082 43.64C121.082 44.152 121.222 44.56 121.502 44.864C121.79 45.16 122.138 45.308 122.546 45.308C122.954 45.308 123.298 45.16 123.578 44.864C123.866 44.568 124.01 44.164 124.01 43.652ZM131.478 45.26V47H130.434C129.69 47 129.11 46.82 128.694 46.46C128.278 46.092 128.07 45.496 128.07 44.672V42.008H127.254V40.304H128.07V38.672H130.122V40.304H131.466V42.008H130.122V44.696C130.122 44.896 130.17 45.04 130.266 45.128C130.362 45.216 130.522 45.26 130.746 45.26H131.478ZM135.545 47.096C134.961 47.096 134.441 46.996 133.985 46.796C133.529 46.596 133.169 46.324 132.905 45.98C132.641 45.628 132.493 45.236 132.461 44.804H134.489C134.513 45.036 134.621 45.224 134.813 45.368C135.005 45.512 135.241 45.584 135.521 45.584C135.777 45.584 135.973 45.536 136.109 45.44C136.253 45.336 136.325 45.204 136.325 45.044C136.325 44.852 136.225 44.712 136.025 44.624C135.825 44.528 135.501 44.424 135.053 44.312C134.573 44.2 134.173 44.084 133.853 43.964C133.533 43.836 133.257 43.64 133.025 43.376C132.793 43.104 132.677 42.74 132.677 42.284C132.677 41.9 132.781 41.552 132.989 41.24C133.205 40.92 133.517 40.668 133.925 40.484C134.341 40.3 134.833 40.208 135.401 40.208C136.241 40.208 136.901 40.416 137.381 40.832C137.869 41.248 138.149 41.8 138.221 42.488H136.325C136.293 42.256 136.189 42.072 136.013 41.936C135.845 41.8 135.621 41.732 135.341 41.732C135.101 41.732 134.917 41.78 134.789 41.876C134.661 41.964 134.597 42.088 134.597 42.248C134.597 42.44 134.697 42.584 134.897 42.68C135.105 42.776 135.425 42.872 135.857 42.968C136.353 43.096 136.757 43.224 137.069 43.352C137.381 43.472 137.653 43.672 137.885 43.952C138.125 44.224 138.249 44.592 138.257 45.056C138.257 45.448 138.145 45.8 137.921 46.112C137.705 46.416 137.389 46.656 136.973 46.832C136.565 47.008 136.089 47.096 135.545 47.096Z" fill="white"/>
<path d="M117.25 28.75V21.25C117.25 19.8693 116.131 18.75 114.75 18.75H112.25C110.869 18.75 109.75 19.8693 109.75 21.25V28.75C109.75 30.1307 110.869 31.25 112.25 31.25H114.75C116.131 31.25 117.25 30.1307 117.25 28.75ZM117.25 28.75V16.25C117.25 14.8693 118.369 13.75 119.75 13.75H122.25C123.631 13.75 124.75 14.8693 124.75 16.25V28.75M117.25 28.75C117.25 30.1307 118.369 31.25 119.75 31.25H122.25C123.631 31.25 124.75 30.1307 124.75 28.75M124.75 28.75V11.25C124.75 9.86929 125.869 8.75 127.25 8.75H129.75C131.131 8.75 132.25 9.86929 132.25 11.25V28.75C132.25 30.1307 131.131 31.25 129.75 31.25H127.25C125.869 31.25 124.75 30.1307 124.75 28.75Z" stroke="url(#paint0_linear_5864_5637)" stroke-width="3" stroke-linecap="round" stroke-linejoin="round"/>
</g>
<defs>
<filter id="filter0_d_5864_5637" x="0" y="0" width="180" height="62" filterUnits="userSpaceOnUse" color-interpolation-filters="sRGB">
<feFlood flood-opacity="0" result="BackgroundImageFix"/>
<feColorMatrix in="SourceAlpha" type="matrix" values="0 0 0 0 0 0 0 0 0 0 0 0 0 0 0 0 0 0 127 0" result="hardAlpha"/>
<feOffset dy="4"/>
<feGaussianBlur stdDeviation="2"/>
<feComposite in2="hardAlpha" operator="out"/>
<feColorMatrix type="matrix" values="0 0 0 0 0 0 0 0 0 0 0 0 0 0 0 0 0 0 0.25 0"/>
<feBlend mode="normal" in2="BackgroundImageFix" result="effect1_dropShadow_5864_5637"/>
<feBlend mode="normal" in="SourceGraphic" in2="effect1_dropShadow_5864_5637" result="shape"/>
</filter>
<linearGradient id="paint0_linear_5864_5637" x1="108.5" y1="19.375" x2="134.437" y2="20.3125" gradientUnits="userSpaceOnUse">
<stop offset="0.0512221" stop-color="white"/>
<stop offset="1" stop-color="#FAC05E"/>
</linearGradient>
</defs>
</svg>
